<svg width="312" height="176" viewBox="0 0 312 176" fill="none" xmlns="http://www.w3.org/2000/svg">
<g clip-path="url(#clip0_5749_6208)">
<path d="M15.7113 172.002L12.2608 167.341C15.0396 166.732 17.5418 165.209 17.5418 162.588C17.5418 159.423 15.1581 157.834 10.5751 157.834H1.90956C1.90956 157.834 2.54169 158.801 2.51536 162.137L2.41 171.274C2.38366 174.584 1.8042 175.551 1.8042 175.551H6.33453C6.33453 175.551 5.68922 174.584 5.66288 171.274L5.63654 167.407C6.43988 167.513 7.46711 167.579 8.49433 167.659L11.8262 172.068C12.6823 173.207 13.9992 174.981 14.1309 175.564H19.7675V175.431C18.5427 174.902 17.1862 173.631 15.7113 172.015V172.002ZM9.12647 166.48C7.45394 166.48 6.46622 166.123 5.64971 165.818V162.177C5.64971 160.76 5.75507 159.727 5.89993 159.065C6.72961 158.92 7.82269 158.84 9.15281 158.84C11.9843 158.84 14.0914 160.363 14.0914 163.117C14.0914 165.315 11.9843 166.48 9.12647 166.48Z" fill="#EAE5E5"/>
<path d="M32.6737 174.253C32.5683 173.591 32.5025 172.558 32.5025 171.287V167.063H36.9143C38.9424 167.063 40.773 167.089 42.5509 167.288V165.567C40.773 165.792 38.9161 165.818 37.0591 165.818H32.5025V162.15C32.5025 160.734 32.6078 159.727 32.7 159.065C36.9275 159.065 42.0899 159.224 44.1444 162.23L44.3419 162.097L43.3674 157.768L28.815 157.847C28.815 157.847 29.3418 158.814 29.3418 162.15V171.287C29.3418 174.597 28.815 175.564 28.815 175.564L44.3682 175.669L45.4745 171.419L45.277 171.287C42.8406 173.975 37.7176 174.292 32.6737 174.253Z" fill="#EAE5E5"/>
<path d="M65.7819 165.448L62.8978 164.666C59.9873 163.859 58.3411 162.773 58.3411 161.33C58.3411 160.085 59.2235 158.629 62.1998 158.629C63.7275 158.629 67.731 159.463 70.4176 163.488L70.6152 163.382L69.8908 158.721C67.9681 157.94 65.6766 157.357 62.8056 157.357C57.5246 157.357 55.536 160.165 55.536 162.548C55.536 164.547 57.3929 166.388 61.1726 167.46L64.2279 168.321C67.731 169.314 68.6924 170.294 68.6924 171.684C68.6924 173.379 67.1121 174.597 64.5835 174.597C61.1463 174.597 57.4983 172.452 55.2858 168.652L55.0883 168.731L56.0628 173.975C58.4202 175.193 60.7775 175.948 63.6485 175.948C67.8627 175.948 71.8926 173.75 71.8926 170.532C71.8926 167.871 69.3641 166.454 65.7819 165.474V165.448Z" fill="#EAE5E5"/>
<path d="M90.3168 157.859C87.1561 157.832 83.8506 157.912 81.2957 157.727L80.5187 162.083L80.6899 162.162C81.9937 160.057 85.0227 159.196 88.4994 158.998C88.6311 159.633 88.697 160.693 88.697 162.109V171.272C88.697 174.582 88.1965 175.549 88.1965 175.549H92.3845C92.3845 175.549 91.8577 174.582 91.8577 171.272V162.109C91.8577 160.693 91.963 159.633 92.0552 158.998C95.532 159.196 98.5478 160.057 99.8516 162.162L100.049 162.083L99.2721 157.727C96.7172 157.899 93.4644 157.832 90.3037 157.859H90.3168Z" fill="#EAE5E5"/>
<path d="M119.264 160.893L117.709 157.86L112.6 157.834V157.913C113.429 158.417 114.272 159.105 114.904 159.886L109.268 171.022C108.662 172.24 107.661 173.962 106.568 175.551H109.571C109.623 174.279 110.229 172.717 110.4 172.439L111.401 170.214C112.824 170.161 114.259 170.108 115.563 170.108C117.117 170.108 118.618 170.161 120.093 170.214L120.923 171.856C121.595 173.445 121.95 174.491 122.029 175.551H127.034C125.809 173.962 124.953 172.359 123.978 170.559L119.264 160.893ZM116.05 168.917C114.667 168.917 113.324 168.89 112.047 168.837L115.708 161.25C116.063 161.859 116.379 162.442 116.63 162.972L119.408 168.837C118.249 168.89 117.13 168.917 116.05 168.917Z" fill="#EAE5E5"/>
<path d="M151.503 162.137V168.254C151.503 171.776 149.751 174.199 145.642 174.199C140.98 174.199 139.676 170.836 139.676 167.778V162.137C139.676 158.853 140.203 158.112 140.203 157.834H135.949C135.949 157.834 136.476 158.8 136.476 162.137V168.36C136.476 172.531 139.11 175.921 144.562 175.921C151.2 175.921 153.307 172.147 153.307 168.122V162.124C153.307 158.787 153.702 157.82 153.702 157.82H151.094C151.094 157.82 151.489 158.787 151.489 162.124L151.503 162.137Z" fill="#EAE5E5"/>
<path d="M178.25 172.002L174.8 167.341C177.578 166.732 180.081 165.209 180.081 162.588C180.081 159.423 177.697 157.834 173.114 157.834H164.448C164.448 157.834 165.08 158.801 165.054 162.137L164.949 171.274C164.922 174.584 164.343 175.551 164.343 175.551H168.873C168.873 175.551 168.228 174.584 168.202 171.274L168.175 167.407C168.979 167.513 170.006 167.579 171.033 167.659L174.365 172.068C175.221 173.207 176.538 174.981 176.67 175.564H182.306V175.431C181.081 174.902 179.725 173.631 178.25 172.015V172.002ZM171.652 166.48C169.979 166.48 168.992 166.123 168.175 165.818V162.177C168.175 160.76 168.281 159.727 168.425 159.065C169.255 158.92 170.348 158.84 171.678 158.84C174.51 158.84 176.617 160.363 176.617 163.117C176.617 165.315 174.51 166.48 171.652 166.48Z" fill="#EAE5E5"/>
<path d="M203.733 160.893L202.179 157.86L197.069 157.834V157.913C197.899 158.417 198.742 159.105 199.374 159.886L193.737 171.022C193.132 172.24 192.131 173.962 191.038 175.551H194.04C194.093 174.279 194.686 172.717 194.87 172.439L195.871 170.214C197.293 170.161 198.729 170.108 200.032 170.108C201.586 170.108 203.088 170.161 204.563 170.214L205.392 171.856C206.064 173.445 206.42 174.491 206.499 175.551H211.503C210.278 173.962 209.422 172.359 208.448 170.559L203.733 160.893ZM200.52 168.917C199.137 168.917 197.794 168.89 196.516 168.837L200.177 161.25C200.533 161.859 200.849 162.442 201.099 162.972L203.878 168.837C202.719 168.89 201.6 168.917 200.52 168.917Z" fill="#EAE5E5"/>
<path d="M230.731 173.775C225.95 173.775 222.394 170.081 222.394 165.605C222.394 161.13 224.725 158.971 228.11 158.971C231.495 158.971 235.274 161.673 235.972 163.05L236.17 162.944L236.644 158.971C235.617 158.442 233.509 157.25 230.006 157.25C224.62 157.25 219.458 160.838 219.458 167.221C219.458 172.332 223.817 175.999 229.058 175.999C234.3 175.999 236.802 172.583 237.697 170.584L237.553 170.385C235.748 172.663 233.47 173.775 230.744 173.775H230.731Z" fill="#EAE5E5"/>
<path d="M251.67 157.834H247.509C247.509 157.834 248.035 158.801 248.035 162.137V171.274C248.035 174.584 247.509 175.551 247.509 175.551H251.67C251.67 175.551 251.143 174.584 251.143 171.274V162.137C251.143 158.801 251.67 157.834 251.67 157.834Z" fill="#EAE5E5"/>
<path d="M272.992 157.529C267.237 157.529 262.272 161.581 262.272 167.275C262.272 172.187 266.407 175.828 271.991 175.828C277.575 175.828 282.513 171.75 282.513 166.136C282.513 161.078 278.378 157.529 272.992 157.529ZM273.361 174.081C268.303 174.081 265.643 169.91 265.643 165.686C265.643 161.846 267.724 159.131 271.451 159.131C275.586 159.131 279.116 162.548 279.116 167.632C279.116 171.353 276.982 174.081 273.361 174.081Z" fill="#EAE5E5"/>
<path d="M273.532 152.285C272.452 153.53 271.201 155.251 270.253 156.456L270.951 156.708C272.873 155.648 274.638 154.563 276.284 153.424L273.532 152.285Z" fill="#EAE5E5"/>
<path d="M295.801 161.117L307.825 175.537H312.013L311.381 174.57C311.236 173.908 311.104 172.849 311.104 171.26V162.124C311.104 158.787 311.631 157.82 311.631 157.82H308.879C308.879 157.82 309.379 158.787 309.379 162.124V171.26C309.379 171.644 309.379 171.988 309.353 172.293L297.25 157.82H292.812L293.787 158.853C293.931 159.515 294.037 160.548 294.037 162.11V171.247C294.037 174.557 293.536 175.524 293.536 175.524H296.289C296.289 175.524 295.762 174.557 295.762 171.247V162.11C295.762 161.726 295.762 161.395 295.788 161.104L295.801 161.117Z" fill="#EAE5E5"/>
<path d="M30.7773 60.2327C45.3033 60.2327 53.4289 52.8574 57.3271 49.3088C57.9987 48.6997 58.565 48.1833 58.9996 47.8523L59.3552 47.5742V45.1511C59.3289 40.2784 59.3157 35.2336 60.1717 32.5986L60.5536 31.4069H45.6325L46.4359 32.784C48.2928 35.9618 48.3323 41.3244 48.3323 48.0906C45.2111 50.5005 40.6281 51.8643 35.6763 51.8643C21.7956 51.8643 10.9307 40.9272 10.9307 26.9579C10.9307 14.1935 16.9229 7.16255 27.8009 7.16255C38.679 7.16255 49.8468 14.9086 51.9539 18.9471L52.3622 19.7415L54.2191 18.8014L55.8389 5.8252L55.299 5.52066C52.8231 4.14359 45.3165 -0.0273438 33.7272 -0.0273438C24.7719 -0.0273438 16.4356 3.00486 10.2196 8.51313C3.54261 14.4848 0 22.5884 0 32.0028C0 47.8258 13.512 60.2327 30.7773 60.2327Z" fill="#EAE5E5"/>
<path d="M66.3087 57.4262L65.479 58.8033H82.8497L81.9541 57.3865C81.941 57.36 80.0709 54.341 80.0051 44.5824L79.9392 33.5658C82.1649 33.8174 84.8251 34.016 87.4459 34.2014L97.5601 47.5616L97.6259 47.6411C99.9306 50.7262 104.237 56.4596 104.579 58.0618L104.737 58.7768H123.926V56.8701L123.372 56.6317C120.159 55.2414 116.366 52.0371 111.085 46.264L101.182 32.9303C111.243 30.388 116.985 24.8267 116.985 17.5574C116.985 4.56793 104.698 1.85352 94.3994 1.85352H65.7951L66.6511 3.25707C66.6643 3.28355 68.4554 6.30251 68.3763 16.1406L68.0603 44.5559C67.9812 54.341 66.3351 57.3732 66.3219 57.3997L66.3087 57.4262ZM79.926 27.038V16.3392C79.926 11.8373 80.2421 9.08313 80.5582 7.45448C82.9945 7.05725 86.1421 6.85863 89.9349 6.85863C98.8507 6.85863 104.395 11.6122 104.395 19.2523C104.395 26.2965 96.8884 28.8123 89.8691 28.8123C85.1543 28.8123 82.3361 27.9119 79.9392 27.038H79.926Z" fill="#EAE5E5"/>
<path d="M126.454 16.1803V35.5387C126.454 47.363 133.302 59.9817 152.543 59.9817C177.012 59.9817 180.66 44.2249 180.66 34.8237V16.1671C180.66 6.22306 181.832 3.16438 181.832 3.1379L182.359 1.86676H171.547L172.047 3.12466C172.047 3.15114 173.232 6.20982 173.232 16.1538V35.2077C173.232 43.2318 170.23 52.7918 155.888 52.7918C149.29 52.7918 138.241 50.3158 138.241 33.7115V16.1538C138.241 8.36811 139.215 5.25646 139.624 3.91912C139.782 3.4292 139.874 3.11142 139.874 2.76715V1.85352H124.215L124.9 3.19086C124.913 3.21734 126.428 6.26278 126.428 16.1406L126.454 16.1803Z" fill="#EAE5E5"/>
<path d="M189.523 57.4271L188.693 58.8041H206.064L205.169 57.3873C205.155 57.3608 203.285 54.3419 203.219 44.5832L203.154 34.1228C205.537 34.3876 209.673 34.7981 213.702 34.7981C220.037 34.7981 226.358 33.3946 231.06 30.945C237.026 27.8333 240.186 23.2254 240.186 17.5847C240.186 4.59527 227.912 1.88086 217.601 1.88086H188.996L189.852 3.28441C189.866 3.31089 191.657 6.32985 191.578 16.1679L191.261 44.5832C191.182 54.3684 189.536 57.4006 189.523 57.4271ZM203.14 27.5685V16.3401C203.14 11.8381 203.456 9.07075 203.773 7.45534C206.209 7.05811 209.356 6.85949 213.149 6.85949C222.065 6.85949 227.609 11.613 227.609 19.2531C227.609 23.8345 225.186 29.2766 213.623 29.2766C208.882 29.2766 205.722 28.4292 203.14 27.5685Z" fill="#EAE5E5"/>
<path d="M276.06 59.6767C294.932 59.6767 309.722 46.0385 309.722 28.6132C309.722 12.5783 296.881 0.939453 279.181 0.939453C259.954 0.939453 244.901 14.6572 244.901 32.1486C244.901 47.8392 258.295 59.6635 276.06 59.6635V59.6767ZM280.34 52.4206C265.169 52.4206 257.228 39.7357 257.228 27.1965C257.228 14.6572 263.813 7.71887 274.414 7.71887C287.505 7.71887 297.369 18.6957 297.369 33.2476C297.369 44.8865 290.678 52.4074 280.34 52.4074V52.4206Z" fill="#EAE5E5"/>
<path d="M55.0092 123.565L54.4561 124.174C46.133 133.178 30.9748 134.502 18.3188 134.502C18.1345 134.502 17.9501 134.502 17.7657 134.502C17.4365 131.987 17.2653 128.703 17.2653 125.154V92.6738C17.2653 81.4322 18.9773 77.9101 19.03 77.8174L19.7675 76.4668H1.75154L2.44953 77.8041C2.4627 77.8439 4.21425 81.313 4.21425 92.6606V125.141C4.21425 136.409 2.4627 139.878 2.44953 139.905L1.71204 141.242L52.4148 141.613L56.853 124.956L54.9961 123.552L55.0092 123.565Z" fill="#EAE5E5"/>
<path d="M98.8244 75.3941C76.9234 75.3941 59.7766 91.0053 59.7766 110.933C59.7766 128.782 75.027 142.248 95.2554 142.248C116.748 142.248 133.592 126.716 133.592 106.881C133.592 88.6351 118.974 75.3809 98.8244 75.3809V75.3941ZM119.751 112.204C119.751 125.591 112.06 134.237 100.154 134.237C82.7312 134.237 73.6178 119.672 73.6178 105.279C73.6178 90.8861 81.1903 82.8885 93.3853 82.8885C108.412 82.8885 119.751 95.494 119.751 112.204Z" fill="#EAE5E5"/>
<path d="M158.693 77.8174L159.431 76.4668H141.612L142.31 77.8041C142.323 77.8439 144.075 81.313 144.075 92.6606V125.141C144.075 136.409 142.323 139.878 142.31 139.905L141.573 141.255H159.391L158.693 139.918C158.68 139.878 156.928 136.409 156.928 125.141V92.6606C156.928 81.419 158.64 77.8968 158.693 77.8041V77.8174Z" fill="#EAE5E5"/>
<path d="M233.575 139.309L233.022 139.071C229.321 137.469 224.976 133.801 218.931 127.18L207.486 111.781C219.049 108.908 225.634 102.579 225.634 94.3029C225.634 79.5656 211.674 76.4805 199.953 76.4805H167.438L168.36 77.8973C168.36 77.8973 170.44 81.4061 170.348 92.6743L169.993 125.155C169.914 136.396 168.004 139.865 167.978 139.892L167.148 141.269H186.547L185.638 139.852C185.612 139.812 183.465 136.356 183.386 125.155L183.307 112.43C185.901 112.721 189.023 112.96 192.078 113.185L203.68 128.505L203.759 128.61C206.406 132.146 211.319 138.713 211.714 140.567L211.872 141.282H233.562V139.322L233.575 139.309ZM183.32 92.8596C183.32 87.6294 183.702 84.4383 184.058 82.5846C186.863 82.1212 190.498 81.8961 194.883 81.8961C205.155 81.8961 211.529 87.3779 211.529 96.1831C211.529 104.326 202.877 107.239 194.791 107.239C189.352 107.239 185.98 106.14 183.307 105.174V92.8596H183.32Z" fill="#EAE5E5"/>
<path d="M309.998 139.8C305.85 134.41 302.953 129.088 299.607 122.944L299.226 122.242L282.461 87.8682L276.679 76.5868L257.043 76.4941V78.189L257.478 78.4538C260.468 80.2811 263.141 82.5188 265.077 84.8095L245.296 123.857C242.952 128.584 239.291 134.702 235.735 139.839L234.747 141.269H248.049L248.088 140.395C248.259 136.013 250.406 130.557 250.893 129.789L254.291 122.282C259.098 122.11 264.05 121.937 268.488 121.937C273.848 121.937 279.023 122.11 284.054 122.282L286.728 127.591C288.966 132.861 290.31 136.648 290.573 140.435L290.639 141.283H311.157L310.025 139.813L309.998 139.8ZM269.067 91.483C269.936 93.019 270.792 94.5814 271.477 96.0512L280.775 115.674C272.465 115.992 264.695 115.926 257.412 115.674L269.067 91.4962V91.483Z" fill="#EAE5E5"/>
</g>
<defs>
<clipPath id="clip0_5749_6208">
<rect width="312" height="176" fill="white"/>
</clipPath>
</defs>
</svg>
